<?xml version="1.0" standalone="no"?>
<!DOCTYPE svg PUBLIC "-//W3C//DTD SVG 1.1//EN" "http://www.w3.org/Graphics/SVG/1.1/DTD/svg11.dtd" >
<svg xmlns="http://www.w3.org/2000/svg">
<metadata>
Created by FontPrep 20130207 at Thu Apr 24 11:50:09 2014
 By Christopher Pappas
Copyright (c) 1995, 2002 Adobe Systems Incorporated. All Rights Reserved.
</metadata>
<defs>
<font id="9f6a3eef2ea35dd99b0d0ec2ae9a10d1" horiz-adv-x='1024' >
  <font-face 
    font-family="ITCFranklinGothicStd-BkCd"
    font-weight="400"
    font-stretch="condensed"
    units-per-em="2048"
    panose-1="2 11 5 6 3 5 3 2 2 4"
    ascent="1405"
    descent="-643"
    x-height="1010"
    cap-height="1366"
    bbox="-332 -512 1925 1829"
    underline-thickness="102"
    underline-position="-102"
    unicode-range="U+0020-FB02"
  />
<missing-glyph horiz-adv-x="1024" 
d="M102 1239v-1044l349 522zM164 102h696l-348 523zM573 717l349 -522v1044zM512 809l348 522h-696zM0 0v1434h1024v-1434h-1024z" />
    <glyph glyph-name="f_i" unicode="fi" horiz-adv-x="907" 
d="M780 1188h-164v174h164v-174zM623 1010h149v-1010h-149v1010zM313 1010h185v-123h-185v-887h-149v887h-146v123h146q2 59 4 125q2 65 17 103q36 91 82 118q65 37 169 39q31 0 88 -9v-122q-23 6 -47 6q-109 0 -137 -52t-27 -208z" />
    <glyph glyph-name="f_l" unicode="fl" horiz-adv-x="907" 
d="M623 1366h149v-1366h-149v1366zM313 1010h185v-123h-185v-887h-149v887h-146v123h146q2 59 4 125q2 65 17 103q36 91 82 118q65 37 169 39q31 0 88 -9v-122q-23 6 -47 6q-109 0 -137 -52t-27 -208z" />
    <glyph glyph-name=".notdef" horiz-adv-x="1024" 
d="M102 1239v-1044l349 522zM164 102h696l-348 523zM573 717l349 -522v1044zM512 809l348 522h-696zM0 0v1434h1024v-1434h-1024z" />
    <glyph glyph-name=".null" horiz-adv-x="0" 
 />
    <glyph glyph-name="nonmarkingreturn" horiz-adv-x="681" 
 />
    <glyph glyph-name="space" unicode=" " horiz-adv-x="512" 
 />
    <glyph glyph-name="exclam" unicode="!" horiz-adv-x="698" 
d="M256 209h186v-209h-186v209zM246 1366h207l-54 -1032h-100z" />
    <glyph glyph-name="quotedbl" unicode="&#x22;" horiz-adv-x="698" 
d="M573 1366l-28 -528h-111l-28 528h167zM293 1366l-29 -528h-110l-29 528h168z" />
    <glyph glyph-name="numbersign" unicode="#" 
d="M674 852h-246l-55 -303h245zM397 1366h123l-71 -397h245l74 397h123l-72 -397h209l-20 -117h-211l-54 -303h209l-20 -117h-211l-78 -432h-123l78 432h-246l-78 -432h-124l79 432h-209l21 117h209l55 303h-211l23 117h209z" />
    <glyph glyph-name="dollar" unicode="$" 
d="M797 383q0 138 -81 185q-54 32 -126 50v-450q113 10 160 76t47 139zM303 1010q0 -158 174 -207v416q-174 -31 -174 -209zM477 1477h113v-136q137 -10 211 -72t117 -190l-119 -49q-41 94 -86 139t-123 52v-443q187 -44 260 -124q34 -36 60 -98t26 -140q0 -217 -156 -316
q-74 -47 -190 -61v-176h-113v176q-161 25 -241 97t-127 214l131 62q70 -221 237 -244v475q-158 49 -229 122q-33 34 -59 95t-25 135q0 160 94 248t219 98v136z" />
    <glyph glyph-name="percent" unicode="%" horiz-adv-x="1394" 
d="M981 1366h121l-684 -1366h-119zM1032 88q134 0 134 229q0 93 -8 141q-7 48 -39 89t-89 41h-2q-135 0 -135 -250q0 -122 31 -186q30 -64 108 -64zM1030 692q123 0 195 -97q71 -97 71 -258t-72 -257t-195 -96t-195 96t-72 256t72 258t196 98zM229 1026q0 -250 138 -250
q81 0 109 67t28 187t-30 184t-114 64q-85 0 -108 -80t-23 -172zM367 1382q123 0 195 -98t73 -257q0 -159 -72 -257q-71 -98 -195 -98t-197 97t-73 258t73 258t196 97z" />
    <glyph glyph-name="ampersand" unicode="&#x26;" horiz-adv-x="1255" 
d="M268 379q0 -127 69 -205t179 -78q141 0 250 127l-303 461q-55 -35 -91 -67t-70 -95t-34 -143zM426 1114q0 -115 92 -270q188 113 189 270q0 74 -39 118q-40 44 -100 44t-101 -44t-41 -118zM1026 -23q-56 0 -96 32t-96 108q-43 -39 -74 -64t-105 -53t-155 -29
q-170 0 -281 113t-111 304t156 312q59 47 133 86q-113 195 -113 313t78 207t211 89t203 -77t70 -194q0 -221 -260 -379l268 -405q94 149 133 405l125 -32q-29 -171 -69 -277t-113 -213q49 -63 78 -85q52 -39 145 -9v-129q-71 -23 -127 -23z" />
    <glyph glyph-name="quotesingle" unicode="'" horiz-adv-x="417" 
d="M293 1366l-29 -528h-110l-29 528h168z" />
    <glyph glyph-name="parenleft" unicode="(" horiz-adv-x="628" 
d="M274 513q0 -460 254 -855h-120q-301 416 -299 854q0 310 122 554q79 157 177 300h120q-254 -393 -254 -853z" />
    <glyph glyph-name="parenright" unicode=")" horiz-adv-x="628" 
d="M520 509q0 -439 -299 -851h-121q254 399 254 855t-254 853h121q299 -418 299 -857z" />
    <glyph glyph-name="asterisk" unicode="*" 
d="M457 1366h133l-21 -285l238 156l59 -123l-245 -110l245 -111l-59 -123l-238 156l21 -285h-133l20 285l-237 -156l-60 123l246 111l-246 110l60 123l237 -156z" />
    <glyph glyph-name="plus" unicode="+" 
d="M590 745h352v-124h-352v-357h-133v357h-353v124h353v357h133v-357z" />
    <glyph glyph-name="comma" unicode="," horiz-adv-x="489" 
d="M170 221h186v-221l-133 -260h-90l121 260h-84v221z" />
    <glyph glyph-name="hyphen" unicode="-" horiz-adv-x="593" 
d="M72 569h450v-123h-450v123z" />
    <glyph glyph-name="period" unicode="." horiz-adv-x="489" 
d="M152 221h186v-221h-186v221z" />
    <glyph glyph-name="slash" unicode="/" horiz-adv-x="907" 
d="M772 1366l-690 -1708h-127l688 1708h129z" />
    <glyph glyph-name="zero" unicode="0" 
d="M795 682q-1 588 -283 588q-66 0 -121 -53t-81 -119t-42 -178t-16 -204q0 -301 58 -448q26 -66 81 -118t121 -54q167 -1 231 197q35 106 42 200q10 133 10 189zM524 1395q96 0 172 -37t121 -102q97 -141 120 -288q22 -147 24 -270q0 -444 -166 -616q-106 -111 -271 -111
q-202 0 -298 142t-118 292q-22 149 -22 263q0 342 90 512q117 215 348 215z" />
    <glyph glyph-name="one" unicode="1" 
d="M645 1382v-1259h219v-123h-616v123h231v1032q-86 -113 -243 -203v164q172 100 296 266h113z" />
    <glyph glyph-name="two" unicode="2" 
d="M507 1395q179 0 287 -112t107 -294q1 -83 -21 -155q-55 -181 -281 -401q-132 -128 -337 -292h639v-141h-827v137q369 317 538 535q123 158 123 307q0 88 -48 173q-26 46 -78 75t-126 28q-217 1 -264 -290l-145 30q12 61 23 97t41 91q30 54 73 97q117 115 296 115z" />
    <glyph glyph-name="three" unicode="3" 
d="M750 376q0 82 -27 135q-27 54 -59 80q-71 56 -244 56h-88v123h88q98 0 140 12t71 35q84 66 84 191q0 126 -65 194t-150 68q-154 0 -215 -91q-46 -70 -66 -141l-131 41q46 158 133 231q39 32 112 58t163 27q172 1 280 -97t107 -258q0 -160 -79 -232q-40 -36 -68 -51
t-74 -38q132 -34 193 -108q27 -34 51 -95t24 -139q0 -170 -116 -287t-340 -117t-343 144q-57 68 -84 190l135 47q73 -256 299 -256q76 0 163 49q46 27 76 87t30 142z" />
    <glyph glyph-name="four" unicode="4" 
d="M637 453v813l-414 -813h414zM793 1395v-942h184v-123h-184v-330h-156v330h-565v110l516 955h205z" />
    <glyph glyph-name="five" unicode="5" 
d="M578 922q87 0 165 -40q135 -69 185 -253q20 -79 20 -189t-40 -210t-108 -154q-134 -105 -300 -105t-281 105q-84 78 -119 219l142 53q55 -175 154 -217q50 -20 120 -20q127 0 193 77q78 98 77 271q0 324 -256 323q-82 0 -142 -37t-81 -68q-20 -32 -43 -79l-114 29l36 739
h695l-15 -141h-551l-20 -437q35 43 59 66q25 24 81 46t143 22z" />
    <glyph glyph-name="six" unicode="6" 
d="M589 756q-225 0 -277 -228q-11 -47 -11 -90q0 -119 69 -223t203 -104q70 -1 119 29t73 67q52 80 52 232q1 151 -67 234t-161 83zM584 1255q-180 0 -250 -188q-57 -156 -68 -412q71 170 186 215q60 25 140 25q170 0 278 -128t107 -325q0 -198 -108 -334t-304 -137
q-238 0 -366 236q-84 162 -84 465t121 513t350 210q78 0 142 -25q64 -24 102 -54q82 -66 133 -226l-144 -50q-33 102 -83 158t-152 57z" />
    <glyph glyph-name="seven" unicode="7" 
d="M950 1366v-100q-57 -78 -93 -133q-37 -55 -105 -201t-119 -318q-90 -307 -90 -614h-170q0 233 56 466q56 232 140 398t222 361h-625l14 141h770z" />
    <glyph glyph-name="eight" unicode="8" 
d="M514 96q112 0 202 58t89 175q0 117 -75 187t-222 123q-156 -58 -218 -124q-61 -66 -61 -177q0 -110 86 -176q87 -66 199 -66zM518 788q106 40 159 76q103 70 101 187q0 94 -68 156q-68 63 -176 63t-175 -60t-66 -155q0 -185 225 -267zM971 358q0 -160 -120 -274
t-336 -113t-328 105q-111 104 -111 272t111 258q54 46 86 64t81 43q-87 51 -135 97q-94 89 -93 232q1 144 107 248t294 104t293 -96t106 -249q0 -205 -244 -316q289 -131 289 -375z" />
    <glyph glyph-name="nine" unicode="9" 
d="M493 1255q-126 0 -193 -92q-67 -91 -67 -241t74 -233q73 -83 187 -83t181 98t67 226q0 127 -62 226q-61 99 -187 99zM463 111q174 0 242 196q53 152 63 387q-70 -158 -183 -205q-56 -23 -128 -22q-152 0 -268 121q-115 121 -115 335t117 343q118 129 307 129
q430 0 430 -647q0 -235 -42 -378q-42 -144 -92 -220t-140 -127t-192 -51t-166 25q-64 26 -106 76q-41 50 -58 83t-40 88l139 63q48 -146 134 -180q41 -16 98 -16z" />
    <glyph glyph-name="colon" unicode=":" horiz-adv-x="489" 
d="M152 1010h186v-222h-186v222zM152 221h186v-221h-186v221z" />
    <glyph glyph-name="semicolon" unicode=";" horiz-adv-x="489" 
d="M170 1010h186v-222h-186v222zM170 221h186v-221l-133 -260h-90l121 260h-84v221z" />
    <glyph glyph-name="less" unicode="&#x3c;" 
d="M967 1153v-135l-740 -336l740 -334v-137l-887 412v120z" />
    <glyph glyph-name="equal" unicode="=" 
d="M942 502h-838v125h838v-125zM942 739h-838v125h838v-125z" />
    <glyph glyph-name="greater" unicode="&#x3e;" 
d="M80 211v137l741 334l-741 336v135l887 -412v-118z" />
    <glyph glyph-name="question" unicode="?" horiz-adv-x="1011" 
d="M352 209h187v-209h-187v209zM489 1395q166 1 275 -95t108 -270q0 -123 -50 -202q-50 -78 -156 -162t-129 -136t-17 -188h-147q2 166 21 238q18 72 104 138t122 100q87 79 87 197q0 255 -224 255q-235 -1 -260 -314l-143 39q23 170 98 269q102 131 311 131z" />
    <glyph glyph-name="at" unicode="@" horiz-adv-x="1185" 
d="M555 393q76 -1 121 105t45 210t-26 164q-25 60 -93 60t-113 -95t-45 -215t33 -174t78 -55zM877 395q86 1 137 103t51 256q0 293 -147 434q-115 111 -285 110q-231 0 -365 -186t-135 -449q1 -263 145 -429t379 -164q186 0 373 104l37 -90q-215 -113 -418 -113
q-281 -1 -461 181t-180 510q0 427 282 628q146 104 368 104t372 -160q150 -161 150 -456q0 -229 -88 -363t-226 -134q-89 0 -115 44q-27 44 -32 74q-19 -37 -33 -59t-53 -44q-39 -24 -92 -24q-229 0 -231 350q0 170 81 300q82 130 213 131q90 0 125 -53q34 -53 45 -91
l19 127h104l-59 -426q-14 -143 -15 -147q0 -68 54 -68z" />
    <glyph glyph-name="A" unicode="A" horiz-adv-x="1011" 
d="M332 524h342l-170 680zM416 1366h196l365 -1366h-168l-100 391h-410l-98 -391h-168z" />
    <glyph glyph-name="B" unicode="B" horiz-adv-x="1081" 
d="M309 649v-512h211q287 0 287 252q0 141 -96 209q-72 51 -224 51h-178zM309 1229v-443h183q195 0 243 101q25 49 25 117q0 178 -128 211q-51 14 -118 14h-205zM143 0v1366h371q84 0 129 -3t107 -27t100 -68q82 -94 82 -240q0 -221 -209 -303q256 -68 256 -344
q0 -381 -455 -381h-381z" />
    <glyph glyph-name="C" unicode="C" 
d="M219 141q-49 72 -89 201t-40 290t18 281q18 121 53 194q34 73 84 141t134 108q84 39 186 39t177 -33t117 -76q42 -42 74 -108t42 -106t20 -93l-157 -39q-33 180 -95 248t-168 67q-144 0 -214 -121t-83 -243q-12 -122 -12 -211q0 -88 10 -171q48 -398 299 -398
q113 1 169 69t94 248l149 -37q-31 -172 -106 -285q-92 -135 -320 -135q-115 0 -204 49t-138 121z" />
    <glyph glyph-name="D" unicode="D" horiz-adv-x="1150" 
d="M309 1229v-1092h129q121 0 210 46t140 125q99 153 99 389q0 235 -116 383t-333 149h-129zM143 0v1366h295q145 0 259 -45t182 -115q69 -70 111 -163q74 -161 73 -325q0 -165 -38 -287q-84 -270 -307 -375q-122 -56 -280 -56h-295z" />
    <glyph glyph-name="E" unicode="E" horiz-adv-x="942" 
d="M143 1366h744v-137h-578v-453h455v-137h-455v-502h594v-137h-760v1366z" />
    <glyph glyph-name="F" unicode="F" horiz-adv-x="837" 
d="M143 1366h717v-137h-551v-453h453v-137h-453v-639h-166v1366z" />
    <glyph glyph-name="G" unicode="G" horiz-adv-x="1150" 
d="M584 676h440v-694h-115l-22 186q-77 -142 -190 -177q-60 -19 -138 -20q-143 0 -244 75q-100 75 -145 195q-78 208 -80 431q0 360 138 554q52 73 146 121t216 48q192 1 284 -99t138 -276l-150 -57q-63 222 -160 269q-49 24 -116 23q-320 0 -320 -572t320 -572
q139 0 199 93t68 177q9 85 9 158h-278v137z" />
    <glyph glyph-name="H" unicode="H" horiz-adv-x="1116" 
d="M143 0v1366h166v-580h498v580h166v-1366h-166v649h-498v-649h-166z" />
    <glyph glyph-name="I" unicode="I" horiz-adv-x="454" 
d="M143 1366h166v-1366h-166v1366z" />
    <glyph glyph-name="J" unicode="J" horiz-adv-x="628" 
d="M485 1366v-908q0 -127 -17 -219t-39 -122q-62 -89 -102 -106q-91 -38 -188 -39q-98 -1 -176 28v135q118 -42 232 -15q59 14 98 96q22 47 24 147t2 200v803h166z" />
    <glyph glyph-name="K" unicode="K" horiz-adv-x="1011" 
d="M143 1366h166v-719l477 719h187l-359 -500l445 -866h-191l-360 717l-199 -281v-436h-166v1366z" />
    <glyph glyph-name="L" unicode="L" horiz-adv-x="802" 
d="M143 1366h166v-1229h518v-137h-684v1366z" />
    <glyph glyph-name="M" unicode="M" horiz-adv-x="1396" 
d="M139 0v1366h240l321 -1100l322 1100h233v-1366h-155v1184l-352 -1184h-121l-344 1186v-1186h-144z" />
    <glyph glyph-name="N" unicode="N" horiz-adv-x="1150" 
d="M137 1366h211l522 -1079v1079h144v-1366h-164l-569 1163v-1163h-144v1366z" />
    <glyph glyph-name="O" unicode="O" horiz-adv-x="1150" 
d="M580 109q309 0 309 573q0 419 -169 538q-55 37 -145 37q-313 0 -313 -574t318 -574zM592 -29q-502 0 -502 733q0 232 87 440q48 114 152 182t236 69q242 0 360 -162q50 -70 93 -199t43 -305q1 -176 -19 -288q-20 -113 -68 -225t-148 -178t-234 -67z" />
    <glyph glyph-name="P" unicode="P" horiz-adv-x="976" 
d="M436 1229h-127v-537h127q194 0 260 61t66 193q0 131 -62 207q-41 51 -93 63t-171 13zM143 1366h293q281 0 389 -118t109 -294q0 -106 -43 -195t-123 -138q-100 -66 -332 -66h-127v-555h-166v1366z" />
    <glyph glyph-name="Q" unicode="Q" horiz-adv-x="1150" 
d="M575 109q312 0 312 574q1 574 -311 574t-312 -575q0 -283 78 -426q76 -147 233 -147zM827 -342q-289 0 -284 315q-235 20 -342 201q-111 188 -111 524q0 197 42 328t94 203t142 119t210 47q118 0 208 -47t140 -119q134 -192 135 -567q0 -375 -166 -562q-66 -76 -197 -114
q-4 -96 29 -140t135 -45q48 1 105 21v-135q-78 -29 -140 -29z" />
    <glyph glyph-name="R" unicode="R" 
d="M528 1229h-219v-496h207q137 0 202 72q64 73 64 197t-76 176q-78 51 -178 51zM143 1366h398q178 0 276 -76q131 -98 131 -297q0 -250 -225 -358l256 -635h-178l-230 596h-262v-596h-166v1366z" />
    <glyph glyph-name="S" unicode="S" 
d="M506 1255q-123 -1 -175 -69t-52 -155q1 -87 67 -136t184 -95t154 -60q36 -15 99 -53q186 -114 186 -323q0 -145 -109 -269t-325 -124q-397 0 -474 387l152 43q29 -143 108 -217q78 -75 215 -74q138 0 199 74t61 146q1 129 -78 186t-202 104t-177 74t-105 72t-84 119
t-33 149q0 141 103 251t300 110q88 0 158 -28q70 -29 110 -63t79 -101q40 -67 61 -148l-148 -43q-61 180 -158 223q-48 20 -116 20z" />
    <glyph glyph-name="T" unicode="T" horiz-adv-x="733" 
d="M-43 1366h819v-139h-327v-1227h-166v1227h-326v139z" />
    <glyph glyph-name="U" unicode="U" horiz-adv-x="1116" 
d="M143 1366h166v-903q0 -170 23 -229t59 -80q72 -43 157 -43q145 0 213 73q56 62 56 287v895h156v-887q0 -205 -37 -300q-80 -204 -383 -208q-200 0 -285 83q-43 42 -75 93t-47 207q-3 43 -3 109v903z" />
    <glyph glyph-name="V" unicode="V" horiz-adv-x="942" 
d="M14 1366h170l299 -1128l295 1128h158l-381 -1366h-170z" />
    <glyph glyph-name="W" unicode="W" horiz-adv-x="1431" 
d="M37 1366h162l219 -1085l241 1085h132l247 -1085l215 1085h146l-283 -1366h-155l-244 1044l-234 -1044h-153z" />
    <glyph glyph-name="X" unicode="X" horiz-adv-x="872" 
d="M33 1366h182l223 -502l256 502h148l-312 -623l357 -743h-193l-260 586l-293 -586h-155l356 713z" />
    <glyph glyph-name="Y" unicode="Y" horiz-adv-x="802" 
d="M485 0h-166v578l-378 788h176l299 -629l295 629h151l-377 -788v-578z" />
    <glyph glyph-name="Z" unicode="Z" horiz-adv-x="837" 
d="M45 1366h772v-113l-633 -1108h645v-145h-817v145l619 1084h-586v137z" />
    <glyph glyph-name="bracketleft" unicode="[" horiz-adv-x="628" 
d="M168 1366h301v-104h-152v-1500h152v-104h-301v1708z" />
    <glyph glyph-name="backslash" unicode="\" horiz-adv-x="907" 
d="M233 1366l689 -1708h-127l-691 1708h129z" />
    <glyph glyph-name="bracketright" unicode="]" horiz-adv-x="628" 
d="M459 -342h-301v104h151v1500h-151v104h301v-1708z" />
    <glyph glyph-name="asciicircum" unicode="^" 
d="M610 1380l369 -755h-158l-299 612l-299 -612h-155l385 755h157z" />
    <glyph glyph-name="underscore" unicode="_" horiz-adv-x="1024" 
d="M0 -256v102h1024v-102h-1024z" />
    <glyph glyph-name="grave" unicode="`" horiz-adv-x="1024" 
d="M610 1225l-69 -74l-340 215l104 113z" />
    <glyph glyph-name="a" unicode="a" horiz-adv-x="942" 
d="M541 514q-301 0 -301 -244q0 -174 168 -174q133 0 206 129q35 63 42 123t1 154q-68 12 -116 12zM479 1038q180 0 266 -106q51 -61 60 -192q2 -42 2 -119v-297q0 -233 18 -324h-143q-12 88 -12 178q-44 -83 -85 -125q-75 -80 -207 -81t-214 81t-82 218t76 229
q109 129 366 129q59 0 133 -8v43q0 250 -188 249q-111 0 -157 -65q-28 -39 -44 -94l-147 24q31 150 164 217q86 43 194 43z" />
    <glyph glyph-name="b" unicode="b" horiz-adv-x="976" 
d="M285 586v-154q0 -328 223 -328q147 0 187 150q32 121 32 237q0 115 -8 177q-20 154 -96 208q-45 30 -111 29q-96 0 -162 -89t-65 -230zM135 0v1366h150v-489q98 154 256 153q129 0 217 -84q135 -137 135 -412t-99 -418q-40 -56 -114 -96t-154 -40q-145 1 -196 52
q-38 37 -78 109q-12 -37 -39 -141h-78z" />
    <glyph glyph-name="c" unicode="c" horiz-adv-x="837" 
d="M298 815q-48 -98 -48 -303t32 -287q50 -127 177 -129q121 -1 159 119q18 59 25 127l152 -18q-28 -195 -106 -270q-88 -83 -250 -83q-272 0 -339 337q-16 85 -16 186q0 545 377 544q207 0 282 -166q31 -66 52 -176l-152 -30q-8 50 -12 76t-18 65q-35 106 -151 106
t-164 -98z" />
    <glyph glyph-name="d" unicode="d" horiz-adv-x="976" 
d="M692 432v168q0 137 -60 221t-165 84q-219 -1 -219 -401t227 -400q101 0 159 75t58 253zM692 1366h150v-1366h-135v141q-88 -162 -271 -161q-92 0 -160 40t-104 94q-90 141 -90 388q0 246 98 387t260 141q126 0 176 -54q51 -54 76 -104v494z" />
    <glyph glyph-name="e" unicode="e" horiz-adv-x="907" 
d="M668 608q0 131 -48 218t-159 87q-184 0 -211 -305h418zM242 485q0 -389 235 -389q101 0 149 74q30 46 56 129l141 -33q-80 -295 -354 -295q-201 -1 -293 147t-92 394t112 386t281 140q353 0 361 -553h-596z" />
    <glyph glyph-name="f" unicode="f" horiz-adv-x="489" 
d="M313 1010h185v-123h-185v-887h-149v887h-146v123h146q7 195 20 229q38 94 74 112q126 67 289 31v-122q-41 10 -72 10q-106 0 -134 -53t-28 -207z" />
    <glyph glyph-name="g" unicode="g" horiz-adv-x="872" 
d="M215 -94q0 -94 67 -132t193 -38q264 0 264 166q0 94 -88 121q-41 12 -350 20q-25 -17 -38 -27t-31 -41t-17 -69zM461 913q-134 0 -173 -122q-16 -51 -16 -105q0 -119 56 -172t128 -53q73 0 127 59q54 60 54 158t-45 166t-131 69zM860 1167v-127q-20 4 -41 4
q-90 0 -106 -126q78 -106 78 -232t-86 -234t-254 -108q-59 0 -125 18q-25 -8 -39 -15q-13 -7 -29 -27t-16 -52q0 -62 47 -78t174 -22t168 -10q137 -13 188 -59q74 -66 74 -177q0 -110 -50 -175t-130 -91q-130 -42 -213 -41q-228 0 -333 68q-42 27 -73 77t-31 119
q0 154 134 201q-94 63 -95 158q0 129 131 186q-117 110 -117 264t102 252q101 98 237 98q76 0 168 -43q19 95 57 131t113 40q22 1 67 1z" />
    <glyph glyph-name="h" unicode="h" horiz-adv-x="942" 
d="M135 1366h150v-512q63 184 241 184t246 -127q35 -68 35 -284v-627h-150v627q0 178 -38 232t-114 54q-143 0 -187 -147q-33 -118 -33 -238v-528h-150v1366z" />
    <glyph glyph-name="i" unicode="i" horiz-adv-x="417" 
d="M291 1188h-162v174h162v-174zM135 1010h150v-1010h-150v1010z" />
    <glyph glyph-name="j" unicode="j" horiz-adv-x="417" 
d="M291 1188h-162v174h162v-174zM135 1010h150v-973q0 -212 -37 -287t-109 -95q-45 -13 -103 -13t-120 16v125q57 -16 100 -16q84 0 102 48q17 48 17 222v973z" />
    <glyph glyph-name="k" unicode="k" horiz-adv-x="837" 
d="M135 1366h150v-858l360 502h164l-264 -357l299 -653h-162l-238 537l-159 -220v-317h-150v1366z" />
    <glyph glyph-name="l" unicode="l" horiz-adv-x="417" 
d="M135 1366h150v-1366h-150v1366z" />
    <glyph glyph-name="m" unicode="m" horiz-adv-x="1429" 
d="M791 596v-596h-150v682q0 135 -40 183t-118 48q-111 0 -168 -114q-31 -66 -30 -213v-586h-150v1010h139v-154q26 57 46 88t73 63q53 31 126 31q144 -1 194 -79q32 -48 51 -125q22 55 62 109q42 55 90 75t114 20q152 0 223 -112q43 -68 43 -303v-623h-149v614
q0 191 -36 245t-118 54q-202 0 -202 -317z" />
    <glyph glyph-name="n" unicode="n" horiz-adv-x="942" 
d="M274 854q74 184 261 184q86 0 149 -37t93 -101t30 -257v-643h-150v623q0 196 -37 243t-118 47q-217 0 -217 -368v-545h-150v1010h139v-156z" />
    <glyph glyph-name="o" unicode="o" horiz-adv-x="942" 
d="M471 913q-221 -1 -221 -409t221 -408t221 408t-221 409zM471 1038q117 0 197 -50t118 -133q72 -154 72 -339q0 -545 -389 -545q-113 0 -191 48q-130 79 -177 300q-17 85 -17 181q0 194 67 346q38 88 120 140q83 52 200 52z" />
    <glyph glyph-name="p" unicode="p" horiz-adv-x="976" 
d="M285 580v-152q0 -101 14 -151t41 -84q66 -89 168 -89t160 102t59 272q0 168 -30 258q-31 90 -77 130t-114 39q-113 0 -174 -110q-47 -84 -47 -215zM135 1010h135v-176q60 139 154 177q49 19 115 19q162 0 258 -139t96 -373q-1 -68 -15 -160q-23 -146 -102 -263t-237 -115
q-70 0 -121 22t-77 52q-26 28 -56 77v-473h-150v1352z" />
    <glyph glyph-name="q" unicode="q" horiz-adv-x="976" 
d="M484 905q-236 0 -236 -389q0 -178 43 -283q20 -49 65 -89t114 -40t127 58t77 131q18 72 18 172v117q0 164 -70 244q-68 80 -138 79zM842 1024v-1366h-150v492q-29 -47 -49 -75q-21 -28 -79 -62t-134 -33q-160 0 -254 134t-94 369q0 415 244 521q117 52 232 9
q73 -27 119 -108q13 -23 30 -59q35 92 55 178h80z" />
    <glyph glyph-name="r" unicode="r" horiz-adv-x="522" 
d="M135 1010h133v-211q70 176 170 219q53 23 121 18v-168q-127 14 -201 -74t-73 -272v-522h-150v1010z" />
    <glyph glyph-name="s" unicode="s" horiz-adv-x="802" 
d="M219 752q0 -66 47 -97t151 -61q103 -30 143 -48t94 -51q110 -69 110 -203t-94 -227t-289 -93t-275 119q-37 56 -49 89t-22 80l139 31q37 -195 234 -195q100 0 150 51t50 103t-15 82q-30 58 -175 103q-146 44 -204 73q-58 30 -100 90t-42 154t86 190t252 96t238 -103
q50 -71 73 -153l-131 -32q-19 45 -51 95q-45 68 -163 68q-66 0 -112 -47q-45 -48 -45 -114z" />
    <glyph glyph-name="t" unicode="t" horiz-adv-x="522" 
d="M301 1010h197v-123h-197v-508q0 -206 37 -241t100 -35q64 -1 109 10v-127q-198 -32 -302 22q-39 20 -74 107q-19 53 -19 264v508h-146v123h146v235l149 15v-250z" />
    <glyph glyph-name="u" unicode="u" horiz-adv-x="942" 
d="M135 1010h150v-637q0 -188 35 -232q35 -43 103 -44q120 -2 170 84q49 86 57 178q7 92 7 190v461h150v-1010h-139v150q-63 -131 -156 -162q-47 -16 -109 -17q-170 0 -233 133q-35 70 -35 267v639z" />
    <glyph glyph-name="v" unicode="v" horiz-adv-x="768" 
d="M14 1010h152l229 -830l221 830h138l-293 -1010h-154z" />
    <glyph glyph-name="w" unicode="w" horiz-adv-x="1150" 
d="M25 1010h149l174 -758l172 758h109l186 -766l180 766h125l-248 -1010h-127l-172 711l-161 -711h-133z" />
    <glyph glyph-name="x" unicode="x" horiz-adv-x="698" 
d="M0 1010h170l180 -342l174 342h154l-250 -465l295 -545h-172l-211 401l-209 -401h-158l289 530z" />
    <glyph glyph-name="y" unicode="y" horiz-adv-x="768" 
d="M150 -365q-27 0 -99 11v123q45 -8 70 -9q82 0 117 52t86 233l-285 965h149l207 -756l223 756h144l-348 -1112q-42 -133 -96 -198t-168 -65z" />
    <glyph glyph-name="z" unicode="z" horiz-adv-x="663" 
d="M55 1010h600v-82l-467 -805h467v-123h-637v123l445 764h-408v123z" />
    <glyph glyph-name="braceleft" unicode="{" horiz-adv-x="628" 
d="M483 1260q-89 0 -111 -41t-22 -179v-211q0 -166 -22 -222t-107 -85q86 -29 108 -85t21 -222v-235q0 -136 22 -178t111 -42l-2 -106q-147 -11 -220 49q-28 23 -42 75t-16 89t-2 113v235q0 179 -28 213t-89 31v125q80 -2 98 50t19 195v211q0 170 16 204q39 84 87 101
q76 28 179 21v-106z" />
    <glyph glyph-name="bar" unicode="|" horiz-adv-x="1024" 
d="M444 1536h138v-2048h-138v2048z" />
    <glyph glyph-name="braceright" unicode="}" horiz-adv-x="628" 
d="M145 -240q92 0 113 41q20 41 21 179v233q0 168 21 224q22 56 108 85q-86 27 -108 83t-21 224v211q-1 136 -21 178t-113 42v106q178 12 230 -60q21 -28 31 -50q22 -47 22 -216v-211q0 -156 11 -178q11 -23 27 -45t79 -22v-125q-81 2 -99 -49t-18 -195v-235
q0 -169 -16 -204q-38 -83 -87 -101q-76 -28 -180 -21v106z" />
    <glyph glyph-name="asciitilde" unicode="~" 
d="M322 825q68 0 221 -71q137 -68 201 -68t106 37q41 37 82 106l84 -49q-109 -225 -289 -225q-69 -1 -221 69t-197 70q-102 0 -165 -105q-9 -15 -29 -48l-82 53q49 92 95 148q68 83 194 83z" />
    <glyph glyph-name="uni00A0" unicode="&#xa0;" horiz-adv-x="512" 
 />
    <glyph glyph-name="exclamdown" unicode="&#xa1;" horiz-adv-x="698" 
d="M442 801h-186v209h186v-209zM453 -356h-207l53 1032h100z" />
    <glyph glyph-name="cent" unicode="&#xa2;" 
d="M340 697q0 -130 24 -207q24 -76 50 -102t73 -46v709q-43 -14 -69 -37t-52 -105t-26 -212zM487 1366h103v-195q100 -13 171 -81t101 -230l-125 -31q-18 99 -52 151t-95 73v-711q70 25 100 75t47 146l125 -26q-37 -274 -272 -316v-235h-103v235q-133 23 -206 121
q-96 123 -97 346q0 291 152 418q59 47 151 65v195z" />
    <glyph glyph-name="sterling" unicode="&#xa3;" 
d="M823 770v-123h-270q14 -81 14 -153q0 -163 -66 -247q-34 -45 -57 -65t-59 -49h156q182 0 256 30t137 136l113 -88q-75 -143 -177 -177t-329 -34h-482v137h43q154 0 233 93t79 219q0 82 -23 198h-231v123h211q-31 184 -31 240q0 180 98 289q37 40 105 68t155 28
q197 0 310 -187l-117 -96q-21 39 -37 65q-16 27 -60 55t-107 28t-105 -32t-62 -95t-20 -129t37 -234h286z" />
    <glyph glyph-name="currency" unicode="&#xa4;" 
d="M524 512q78 0 134 55t57 135q-1 80 -57 136t-135 57q-79 0 -134 -56t-55 -136q0 -79 56 -135t134 -56zM844 701q0 -96 -56 -177l152 -151l-84 -84l-151 149q-89 -55 -181 -55t-178 53l-151 -149l-84 84l151 149q-57 88 -57 181t55 184l-151 151l84 84l153 -151
q80 55 178 55t183 -57l151 151l84 -84l-151 -151q53 -86 53 -182z" />
    <glyph glyph-name="yen" unicode="&#xa5;" 
d="M958 811v-106h-294l-68 -154h362v-107h-362v-444h-150v444h-333v107h331l-73 154h-258v106h213l-263 555h179l293 -659l292 659h158l-272 -555h245z" />
    <glyph glyph-name="brokenbar" unicode="&#xa6;" horiz-adv-x="1024" 
d="M580 358v-716h-138v716h138zM580 1382v-716h-138v716h138z" />
    <glyph glyph-name="section" unicode="&#xa7;" 
d="M764 523q0 106 -131 171q-25 12 -205 80q-38 -34 -60 -56t-41 -64t-20 -87q-1 -94 61 -134t279 -114q117 98 117 204zM352 1108q0 -62 18 -98q18 -37 65 -68q48 -31 138 -65q90 -33 119 -44t76 -39q135 -80 135 -215q0 -88 -29 -149q-28 -61 -54 -87t-68 -64
q44 -31 72 -55t61 -86t33 -142q0 -154 -111 -254t-291 -100q-326 0 -387 305l145 26q45 -207 250 -206q131 0 186 64q54 65 54 142q0 150 -175 209t-235 85q-186 80 -186 252q0 173 170 302q-133 106 -133 255t93 234t252 85t255 -97q53 -53 88 -178l-145 -20q-15 54 -47 98
q-58 82 -162 82q-103 0 -145 -55t-42 -117z" />
    <glyph glyph-name="dieresis" unicode="&#xa8;" horiz-adv-x="1024" 
d="M664 1178q-39 0 -72 28t-33 69q0 42 30 71q30 28 75 28q44 0 74 -28t30 -72t-32 -70t-72 -26zM360 1178q-40 0 -72 26t-32 70q0 43 30 72q30 28 74 28t75 -28q30 -28 30 -72t-33 -70t-72 -26z" />
    <glyph glyph-name="copyright" unicode="&#xa9;" horiz-adv-x="1605" 
d="M803 80q248 0 424 176t176 426t-176 428t-424 178t-424 -178t-176 -428t176 -426t424 -176zM803 -27q-295 0 -505 208t-210 502t210 503t505 209t505 -209t210 -503t-210 -502t-505 -208zM815 1006q-182 0 -182 -323q1 -323 189 -323q64 0 94 40t55 147l119 -27
q-17 -94 -66 -170q-59 -92 -226 -92t-247 152q-53 104 -53 289q0 281 170 375q62 34 143 34q159 0 222 -103q42 -70 63 -159l-125 -27q-32 146 -86 172q-29 14 -70 15z" />
    <glyph glyph-name="ordfeminine" unicode="&#xaa;" 
d="M395 877q0 -104 101 -105q166 0 166 242q-49 8 -70 8q-197 0 -197 -145zM549 1395q135 0 199 -78q47 -51 47 -211v-197q0 -164 16 -229h-125q-6 47 -10 98q-27 -37 -43 -56q-15 -20 -59 -40t-99 -20q-98 0 -162 57q-63 57 -63 169t75 165t140 62t114 9q48 0 83 -6
q0 123 -53 151q-28 15 -70 15q-109 0 -129 -106l-134 20q43 197 273 197z" />
    <glyph glyph-name="guillemotleft" unicode="&#xab;" horiz-adv-x="733" 
d="M362 238h-92l-178 288l178 287h92l-94 -287zM641 223h-92l-178 303l178 303h92l-94 -303z" />
    <glyph glyph-name="logicalnot" unicode="&#xac;" 
d="M823 399v340h-719v125h838v-465h-119z" />
    <glyph glyph-name="uni00AD" unicode="&#xad;" horiz-adv-x="593" 
d="M72 569h450v-123h-450v123z" />
    <glyph glyph-name="registered" unicode="&#xae;" 
d="M524 1298q-133 0 -227 -95t-94 -233t95 -232t226 -95q131 0 226 94q94 93 94 231t-93 234q-94 96 -227 96zM523 1380q169 0 289 -120t120 -290q0 -171 -121 -290t-288 -119t-287 119t-121 290q0 171 119 291q120 119 289 119zM537 1143h-64v-142h59q82 0 82 78
q1 64 -77 64zM389 1202h150q61 0 110 -26t49 -101q0 -74 -82 -110l91 -213h-89l-77 190h-68v-190h-84v450z" />
    <glyph glyph-name="macron" unicode="&#xaf;" horiz-adv-x="1024" 
d="M238 1333h546v-119h-546v119z" />
    <glyph glyph-name="degree" unicode="&#xb0;" 
d="M524 1280h-2q-74 0 -124 -58t-50 -142t51 -143q51 -58 124 -58t124 58t51 142q0 85 -50 143t-124 58zM209 1079q0 131 92 223t222 93q130 0 222 -92q93 -93 93 -225t-94 -223t-222 -91q-129 0 -221 92t-92 223z" />
    <glyph glyph-name="plusminus" unicode="&#xb1;" 
d="M942 39h-838v125h838v-125zM590 745h352v-124h-352v-357h-133v357h-353v124h353v357h133v-357z" />
    <glyph glyph-name="two.superior" unicode="&#xb2;" horiz-adv-x="698" 
d="M336 1382q116 0 188 -68t72 -166q0 -99 -40 -167t-114 -141q-111 -106 -217 -185h371v-108h-537v96q254 209 330 310t76 175q1 34 -15 72q-30 76 -124 77q-93 1 -120 -60q-26 -61 -32 -111l-117 24q55 252 279 252z" />
    <glyph glyph-name="three.superior" unicode="&#xb3;" horiz-adv-x="698" 
d="M612 778q0 -102 -74 -175t-225 -73q-150 0 -214 87q-43 61 -62 128l110 35q11 -42 37 -82q45 -71 140 -71q30 0 58 8t60 46t31 101q0 143 -188 144h-68v94h68q93 0 128 30q36 30 37 97t-34 103t-90 36t-90 -26q-34 -26 -44 -48t-22 -63l-104 31q51 203 266 202
q112 0 182 -59t70 -174t-123 -168q151 -50 151 -203z" />
    <glyph glyph-name="acute" unicode="&#xb4;" horiz-adv-x="1024" 
d="M414 1225l305 254l104 -113l-340 -215z" />
    <glyph glyph-name="mu" unicode="&#xb5;" horiz-adv-x="942" 
d="M657 1010h150v-1010h-139v150q-31 -90 -74 -134t-123 -45q-80 0 -122 43t-75 136v-492h-139v1352h150v-556q0 -153 34 -248q13 -40 33 -60q49 -49 104 -49q83 -1 133 49q68 68 68 308v556z" />
    <glyph glyph-name="paragraph" unicode="&#xb6;" 
d="M891 1366v-1708h-119v1591h-104v-1591h-119v950h-80q-67 0 -101 2q-100 6 -178 64q-137 98 -137 311q0 105 41 191t103 131q86 59 272 59h422z" />
    <glyph glyph-name="periodcentered" unicode="&#xb7;" horiz-adv-x="487" 
d="M152 793h186v-222h-186v222z" />
    <glyph glyph-name="cedilla" unicode="&#xb8;" horiz-adv-x="1024" 
d="M532 -297q90 0 91 64q0 51 -66 67q-25 6 -117 6l52 160h83l-26 -90h33q74 0 120 -39t48 -100q0 -61 -56 -111t-145 -51q-90 0 -180 55l22 66q76 -27 141 -27z" />
    <glyph glyph-name="one.superior" unicode="&#xb9;" horiz-adv-x="698" 
d="M451 1376v-735h135v-94h-408v94h144v559q-63 -59 -152 -106v123q104 55 190 159h91z" />
    <glyph glyph-name="ordmasculine" unicode="&#xba;" 
d="M379 1029q0 -267 144 -267q145 0 145 267t-144 267t-145 -267zM246 1028q0 201 94 299q64 68 176 68q112 1 178 -59t86 -135t21 -165q0 -373 -281 -372q-80 0 -137 34q-137 80 -137 330z" />
    <glyph glyph-name="guillemotright" unicode="&#xbb;" horiz-adv-x="733" 
d="M371 829h92l178 -303l-178 -303h-92l94 303zM92 829h92l178 -303l-178 -303h-92l94 303z" />
    <glyph glyph-name="onequarter" unicode="&#xbc;" horiz-adv-x="1533" 
d="M451 1376v-735h135v-94h-408v94h144v559q-63 -59 -152 -106v123q104 55 190 159h91zM1198 287v432l-229 -432h229zM1051 1366h118l-684 -1366h-120zM1319 836v-549h113v-94h-113v-193h-121v193h-356v77l329 566h148z" />
    <glyph glyph-name="onehalf" unicode="&#xbd;" horiz-adv-x="1533" 
d="M1126 836q117 0 189 -67t71 -181q0 -58 -18 -110t-104 -149t-248 -220h370v-109h-536v96q236 195 334 316q72 86 71 170q0 28 -7 56t-41 60t-84 33q-50 0 -81 -16q-55 -28 -77 -156l-117 25q55 252 278 252zM1004 1366h118l-682 -1366h-121zM406 1376v-735h135v-94h-408
v94h143v559q-63 -59 -151 -106v123q104 55 190 159h91z" />
    <glyph glyph-name="threequarters" unicode="&#xbe;" horiz-adv-x="1533" 
d="M647 778q0 -102 -75 -175t-225 -73t-213 87q-43 61 -62 128l110 35q11 -42 37 -82q45 -71 139 -71q29 0 58 8q28 8 60 46t32 101q0 143 -189 144h-67v94h67q93 0 129 30q37 30 37 98q0 66 -34 102q-35 36 -91 36t-90 -26q-35 -26 -44 -48t-21 -63l-105 31q51 203 267 202
q111 0 181 -59t70 -174t-122 -168q151 -50 151 -203zM1329 836v-549h115v-94h-115v-193h-121v193h-354v77l328 566h147zM1083 1366h119l-684 -1366h-119zM1208 287v432l-229 -432h229z" />
    <glyph glyph-name="questiondown" unicode="&#xbf;" horiz-adv-x="1011" 
d="M659 801h-186v209h186v-209zM522 -383q-168 0 -276 95t-107 270q0 124 51 202q50 78 156 161t129 136t17 187h147q-1 -162 -21 -236t-105 -140t-120 -98q-88 -82 -88 -214q0 -96 50 -167t173 -71q235 0 260 311l144 -37q-12 -98 -46 -176q-34 -76 -75 -118t-116 -74
t-173 -31z" />
    <glyph glyph-name="Agrave" unicode="&#xc0;" horiz-adv-x="1011" 
d="M633 1593l-49 -90l-396 121l74 139zM332 524h342l-170 680zM416 1366h196l365 -1366h-168l-100 391h-410l-98 -391h-168z" />
    <glyph glyph-name="Aacute" unicode="&#xc1;" horiz-adv-x="1011" 
d="M391 1593l371 170l74 -139l-396 -121zM332 524h342l-170 680zM416 1366h196l365 -1366h-168l-100 391h-410l-98 -391h-168z" />
    <glyph glyph-name="Acircumflex" unicode="&#xc2;" horiz-adv-x="1011" 
d="M180 1513l332 228l332 -228l-150 -26l-182 106l-182 -106zM332 524h342l-170 680zM416 1366h196l365 -1366h-168l-100 391h-410l-98 -391h-168z" />
    <glyph glyph-name="Atilde" unicode="&#xc3;" horiz-adv-x="1011" 
d="M602 1509q-53 0 -128 38t-105 38q-53 0 -103 -74l-88 50q78 154 203 153q31 0 55 -8t111 -49q90 -36 128 -2q19 16 42 51l88 -49q-23 -41 -42 -67t-63 -54t-98 -27zM332 524h342l-170 680zM416 1366h196l365 -1366h-168l-100 391h-410l-98 -391h-168z" />
    <glyph glyph-name="Adieresis" unicode="&#xc4;" horiz-adv-x="1011" 
d="M670 1712q46 0 76 -30t30 -74t-34 -73q-34 -28 -73 -28q-38 0 -73 28t-35 73q0 44 32 74t77 30zM355 1507q-39 0 -73 28t-34 72q0 45 31 75t75 30t77 -30q32 -30 32 -74t-35 -73q-35 -28 -73 -28zM332 524h342l-170 680zM416 1366h196l365 -1366h-168l-100 391h-410
l-98 -391h-168z" />
    <glyph glyph-name="Aring" unicode="&#xc5;" horiz-adv-x="1011" 
d="M512 1735q-39 0 -68 -28q-28 -28 -28 -70q0 -41 30 -67t66 -26q37 0 67 26q29 26 29 68t-28 69q-29 28 -68 28zM512 1829q78 0 134 -55q56 -54 56 -134t-56 -135t-134 -55t-134 55t-56 135t56 134t134 55zM332 524h342l-170 680zM416 1366h196l365 -1366h-168l-100 391
h-410l-98 -391h-168z" />
    <glyph glyph-name="AE" unicode="&#xc6;" horiz-adv-x="1501" 
d="M707 559v690l-336 -690h336zM1456 1366v-137h-584v-453h459v-137h-459v-502h588v-137h-753v422h-402l-205 -422h-161l690 1366h827z" />
    <glyph glyph-name="Ccedilla" unicode="&#xc7;" 
d="M308 1021q-42 -111 -42 -320t50 -373q30 -98 97 -158t173 -59t160 69t92 248l151 -37q-43 -227 -136 -318t-271 -102l-23 -73q153 5 196 -84q13 -30 13 -58q0 -68 -57 -118t-147 -50t-189 58l24 65q88 -27 144 -26q94 0 94 65q0 53 -68 68q-43 6 -123 6l50 151
q-168 25 -250 134q-156 193 -156 569q0 119 20 237q20 119 52 192q33 73 83 141t135 108q85 39 179 39q180 0 269 -82t120 -166t49 -168l-159 -39q-33 180 -95 248t-165 67q-147 0 -217 -119q-32 -56 -53 -115z" />
    <glyph glyph-name="Egrave" unicode="&#xc8;" horiz-adv-x="942" 
d="M633 1593l-49 -90l-396 121l74 139zM143 1366h744v-137h-578v-453h455v-137h-455v-502h594v-137h-760v1366z" />
    <glyph glyph-name="Eacute" unicode="&#xc9;" horiz-adv-x="942" 
d="M391 1593l371 170l74 -139l-396 -121zM143 1366h744v-137h-578v-453h455v-137h-455v-502h594v-137h-760v1366z" />
    <glyph glyph-name="Ecircumflex" unicode="&#xca;" horiz-adv-x="942" 
d="M150 1513l331 228l332 -228l-149 -26l-183 106l-182 -106zM143 1366h744v-137h-578v-453h455v-137h-455v-502h594v-137h-760v1366z" />
    <glyph glyph-name="Edieresis" unicode="&#xcb;" horiz-adv-x="942" 
d="M638 1507q-38 0 -73 28t-35 73q0 44 32 74t77 30t76 -30t31 -74t-36 -73q-34 -28 -72 -28zM324 1712q44 0 76 -30t32 -74t-34 -73q-34 -28 -73 -28q-38 0 -73 28t-35 72q0 45 31 75t76 30zM143 1366h744v-137h-578v-453h455v-137h-455v-502h594v-137h-760v1366z" />
    <glyph glyph-name="Igrave" unicode="&#xcc;" horiz-adv-x="454" 
d="M326 1593l-50 -90l-395 121l74 139zM143 1366h166v-1366h-166v1366z" />
    <glyph glyph-name="Iacute" unicode="&#xcd;" horiz-adv-x="454" 
d="M145 1593l371 170l74 -139l-395 -121zM143 1366h166v-1366h-166v1366z" />
    <glyph glyph-name="Icircumflex" unicode="&#xce;" horiz-adv-x="454" 
d="M-96 1513l332 228l331 -228l-149 -26l-182 106l-183 -106zM143 1366h166v-1366h-166v1366z" />
    <glyph glyph-name="Idieresis" unicode="&#xcf;" horiz-adv-x="454" 
d="M382 1507q-38 0 -73 28t-35 73q0 44 32 74t77 30t76 -30t31 -74t-36 -73q-34 -28 -72 -28zM68 1712q44 0 76 -30t32 -74t-34 -73q-34 -28 -73 -28q-38 0 -73 28t-35 72q0 45 31 75t76 30zM143 1366h166v-1366h-166v1366z" />
    <glyph glyph-name="Eth" unicode="&#xd0;" horiz-adv-x="1150" 
d="M309 1229v-453h281v-137h-281v-502h129q121 0 210 46t140 124q99 151 99 387t-116 386t-333 149h-129zM143 0v639h-131v137h131v590h295q145 0 259 -45t182 -115q69 -70 111 -163q74 -161 73 -325q0 -165 -38 -287q-84 -270 -307 -375q-122 -56 -280 -56h-295z" />
    <glyph glyph-name="Ntilde" unicode="&#xd1;" horiz-adv-x="1150" 
d="M674 1509q-53 0 -128 38t-106 38q-53 0 -102 -74l-88 50q78 154 203 153q31 0 55 -8t110 -49q90 -36 128 -2q19 16 42 51l89 -49q-23 -41 -42 -67t-63 -54t-98 -27zM137 1366h211l522 -1079v1079h144v-1366h-164l-569 1163v-1163h-144v1366z" />
    <glyph glyph-name="Ograve" unicode="&#xd2;" horiz-adv-x="1150" 
d="M674 1593l-49 -90l-396 121l74 139zM580 109q309 0 309 573q0 419 -169 538q-55 37 -145 37q-313 0 -313 -574t318 -574zM592 -29q-502 0 -502 733q0 232 87 440q48 114 152 182t236 69q242 0 360 -162q50 -70 93 -199t43 -305q1 -176 -19 -288q-20 -113 -68 -225
t-148 -178t-234 -67z" />
    <glyph glyph-name="Oacute" unicode="&#xd3;" horiz-adv-x="1150" 
d="M391 1593l371 170l74 -139l-396 -121zM580 109q309 0 309 573q0 419 -169 538q-55 37 -145 37q-313 0 -313 -574t318 -574zM592 -29q-502 0 -502 733q0 232 87 440q48 114 152 182t236 69q242 0 360 -162q50 -70 93 -199t43 -305q1 -176 -19 -288q-20 -113 -68 -225
t-148 -178t-234 -67z" />
    <glyph glyph-name="Ocircumflex" unicode="&#xd4;" horiz-adv-x="1150" 
d="M242 1513l331 228l332 -228l-149 -26l-183 106l-182 -106zM580 109q309 0 309 573q0 419 -169 538q-55 37 -145 37q-313 0 -313 -574t318 -574zM592 -29q-502 0 -502 733q0 232 87 440q48 114 152 182t236 69q242 0 360 -162q50 -70 93 -199t43 -305q1 -176 -19 -288
q-20 -113 -68 -225t-148 -178t-234 -67z" />
    <glyph glyph-name="Otilde" unicode="&#xd5;" horiz-adv-x="1150" 
d="M684 1509q-53 0 -128 38t-105 38q-53 0 -103 -74l-88 50q78 154 203 153q31 0 55 -8t111 -49q90 -36 128 -2q19 16 42 51l88 -49q-23 -41 -42 -67t-63 -54t-98 -27zM580 109q309 0 309 573q0 419 -169 538q-55 37 -145 37q-313 0 -313 -574t318 -574zM592 -29
q-502 0 -502 733q0 232 87 440q48 114 152 182t236 69q242 0 360 -162q50 -70 93 -199t43 -305q1 -176 -19 -288q-20 -113 -68 -225t-148 -178t-234 -67z" />
    <glyph glyph-name="Odieresis" unicode="&#xd6;" horiz-adv-x="1150" 
d="M730 1507q-38 0 -73 28t-35 73q0 44 32 74t77 30t76 -30t31 -74t-35 -73q-35 -28 -73 -28zM417 1507q-38 0 -73 28t-35 72q0 45 31 75t76 30t77 -30q31 -30 31 -74t-34 -73q-34 -28 -73 -28zM580 109q309 0 309 573q0 419 -169 538q-55 37 -145 37q-313 0 -313 -574
t318 -574zM592 -29q-502 0 -502 733q0 232 87 440q48 114 152 182t236 69q242 0 360 -162q50 -70 93 -199t43 -305q1 -176 -19 -288q-20 -113 -68 -225t-148 -178t-234 -67z" />
    <glyph glyph-name="multiply" unicode="&#xd7;" 
d="M524 776l262 262l93 -94l-263 -262l263 -262l-93 -92l-262 262l-262 -262l-94 92l262 262l-262 262l94 94z" />
    <glyph glyph-name="Oslash" unicode="&#xd8;" horiz-adv-x="1150" 
d="M893 682q0 256 -57 412l-439 -936q76 -55 181 -56q315 0 315 580zM258 682q0 -262 66 -426l440 944q-76 63 -189 64q-317 0 -317 -582zM1053 682q0 -197 -39 -332t-88 -208q-50 -73 -138 -122t-218 -49t-246 74l-66 -129h-119l105 207q-145 199 -146 559q0 199 40 334
t90 208t140 122t224 49q133 0 248 -80l63 125h119l-102 -207q133 -197 133 -551z" />
    <glyph glyph-name="Ugrave" unicode="&#xd9;" horiz-adv-x="1116" 
d="M633 1593l-49 -90l-396 121l74 139zM143 1366h166v-903q0 -170 23 -229t59 -80q72 -43 157 -43q145 0 213 73q56 62 56 287v895h156v-887q0 -205 -37 -300q-80 -204 -383 -208q-200 0 -285 83q-43 42 -75 93t-47 207q-3 43 -3 109v903z" />
    <glyph glyph-name="Uacute" unicode="&#xda;" horiz-adv-x="1116" 
d="M391 1593l371 170l74 -139l-396 -121zM143 1366h166v-903q0 -170 23 -229t59 -80q72 -43 157 -43q145 0 213 73q56 62 56 287v895h156v-887q0 -205 -37 -300q-80 -204 -383 -208q-200 0 -285 83q-43 42 -75 93t-47 207q-3 43 -3 109v903z" />
    <glyph glyph-name="Ucircumflex" unicode="&#xdb;" horiz-adv-x="1116" 
d="M180 1513l332 228l332 -228l-150 -26l-182 106l-182 -106zM143 1366h166v-903q0 -170 23 -229t59 -80q72 -43 157 -43q145 0 213 73q56 62 56 287v895h156v-887q0 -205 -37 -300q-80 -204 -383 -208q-200 0 -285 83q-43 42 -75 93t-47 207q-3 43 -3 109v903z" />
    <glyph glyph-name="Udieresis" unicode="&#xdc;" horiz-adv-x="1116" 
d="M720 1507q-38 0 -73 28t-35 73q0 44 32 74t77 30t76 -30t31 -74t-36 -73q-34 -28 -72 -28zM406 1712q44 0 76 -30t32 -74t-34 -73q-34 -28 -73 -28q-38 0 -73 28t-35 72q0 45 31 75t76 30zM143 1366h166v-903q0 -170 23 -229t59 -80q72 -43 157 -43q145 0 213 73
q56 62 56 287v895h156v-887q0 -205 -37 -300q-80 -204 -383 -208q-200 0 -285 83q-43 42 -75 93t-47 207q-3 43 -3 109v903z" />
    <glyph glyph-name="Yacute" unicode="&#xdd;" horiz-adv-x="802" 
d="M340 1593l371 170l73 -139l-395 -121zM485 0h-166v578l-378 788h176l299 -629l295 629h151l-377 -788v-578z" />
    <glyph glyph-name="Thorn" unicode="&#xde;" horiz-adv-x="976" 
d="M436 995h-127v-534h127q195 0 255 56q28 26 49 78q22 52 22 128q0 121 -62 197q-41 51 -93 63t-171 12zM143 1366h166v-233h127q148 0 240 -27t151 -92q106 -117 107 -293q0 -103 -43 -193t-121 -139q-102 -66 -334 -65h-127v-324h-166v1366z" />
    <glyph glyph-name="germandbls" unicode="&#xdf;" horiz-adv-x="976" 
d="M10 793v122h125q-2 80 0 125t20 115q37 153 160 217q68 35 111 42t82 7q133 0 228 -80t95 -204q0 -229 -348 -306q8 -20 22 -36t104 -62q91 -45 129 -69t94 -70q116 -96 114 -256q0 -125 -73 -235q-37 -58 -111 -95t-161 -37t-191 35l39 119q81 -29 157 -29t131 62
t55 170q0 107 -63 164q-37 33 -65 50t-116 64q-90 47 -134 96q-44 50 -45 104q0 54 16 99q210 43 269 127q28 40 28 110t-52 118t-132 47q-115 0 -172 -103q-41 -72 -41 -289v-991h-150v869h-125z" />
    <glyph glyph-name="agrave" unicode="&#xe0;" horiz-adv-x="942" 
d="M569 1225l-69 -74l-340 215l104 113zM541 514q-301 0 -301 -244q0 -174 168 -174q133 0 206 129q35 63 42 123t1 154q-68 12 -116 12zM479 1038q180 0 266 -106q51 -61 60 -192q2 -42 2 -119v-297q0 -233 18 -324h-143q-12 88 -12 178q-44 -83 -85 -125q-75 -80 -207 -81
t-214 81t-82 218t76 229q109 129 366 129q59 0 133 -8v43q0 250 -188 249q-111 0 -157 -65q-28 -39 -44 -94l-147 24q31 150 164 217q86 43 194 43z" />
    <glyph glyph-name="aacute" unicode="&#xe1;" horiz-adv-x="942" 
d="M373 1225l305 254l104 -113l-340 -215zM541 514q-301 0 -301 -244q0 -174 168 -174q133 0 206 129q35 63 42 123t1 154q-68 12 -116 12zM479 1038q180 0 266 -106q51 -61 60 -192q2 -42 2 -119v-297q0 -233 18 -324h-143q-12 88 -12 178q-44 -83 -85 -125
q-75 -80 -207 -81t-214 81t-82 218t76 229q109 129 366 129q59 0 133 -8v43q0 250 -188 249q-111 0 -157 -65q-28 -39 -44 -94l-147 24q31 150 164 217q86 43 194 43z" />
    <glyph glyph-name="acircumflex" unicode="&#xe2;" horiz-adv-x="942" 
d="M150 1192l321 242l322 -242l-146 -27l-176 125l-176 -125zM541 514q-301 0 -301 -244q0 -174 168 -174q133 0 206 129q35 63 42 123t1 154q-68 12 -116 12zM479 1038q180 0 266 -106q51 -61 60 -192q2 -42 2 -119v-297q0 -233 18 -324h-143q-12 88 -12 178
q-44 -83 -85 -125q-75 -80 -207 -81t-214 81t-82 218t76 229q109 129 366 129q59 0 133 -8v43q0 250 -188 249q-111 0 -157 -65q-28 -39 -44 -94l-147 24q31 150 164 217q86 43 194 43z" />
    <glyph glyph-name="atilde" unicode="&#xe3;" horiz-adv-x="942" 
d="M570 1176q-44 0 -114 48q-69 48 -100 48q-53 0 -94 -84l-84 49q76 160 189 160q53 0 121 -48q68 -49 113 -49q44 0 79 78l84 -49q-62 -114 -120 -140q-30 -13 -74 -13zM541 514q-301 0 -301 -244q0 -174 168 -174q133 0 206 129q35 63 42 123t1 154q-68 12 -116 12z
M479 1038q180 0 266 -106q51 -61 60 -192q2 -42 2 -119v-297q0 -233 18 -324h-143q-12 88 -12 178q-44 -83 -85 -125q-75 -80 -207 -81t-214 81t-82 218t76 229q109 129 366 129q59 0 133 -8v43q0 250 -188 249q-111 0 -157 -65q-28 -39 -44 -94l-147 24q31 150 164 217
q86 43 194 43z" />
    <glyph glyph-name="adieresis" unicode="&#xe4;" horiz-adv-x="942" 
d="M623 1178q-39 0 -72 28t-33 69q0 42 30 71q30 28 75 28t75 -28t29 -72t-33 -70t-71 -26zM319 1178q-39 0 -71 26t-33 70q0 43 30 72q31 28 75 28t74 -28t30 -72t-33 -70t-72 -26zM541 514q-301 0 -301 -244q0 -174 168 -174q133 0 206 129q35 63 42 123t1 154
q-68 12 -116 12zM479 1038q180 0 266 -106q51 -61 60 -192q2 -42 2 -119v-297q0 -233 18 -324h-143q-12 88 -12 178q-44 -83 -85 -125q-75 -80 -207 -81t-214 81t-82 218t76 229q109 129 366 129q59 0 133 -8v43q0 250 -188 249q-111 0 -157 -65q-28 -39 -44 -94l-147 24
q31 150 164 217q86 43 194 43z" />
    <glyph glyph-name="aring" unicode="&#xe5;" horiz-adv-x="942" 
d="M495 1208q37 0 65 26t28 68t-28 68t-66 27q-38 0 -65 -27q-28 -26 -28 -68t29 -68t65 -26zM496 1118q-68 0 -126 49t-58 131t54 136q56 54 130 53q74 0 128 -53q54 -54 54 -136t-57 -131t-125 -49zM541 514q-301 0 -301 -244q0 -174 168 -174q133 0 206 129q35 63 42 123
t1 154q-68 12 -116 12zM479 1038q180 0 266 -106q51 -61 60 -192q2 -42 2 -119v-297q0 -233 18 -324h-143q-12 88 -12 178q-44 -83 -85 -125q-75 -80 -207 -81t-214 81t-82 218t76 229q109 129 366 129q59 0 133 -8v43q0 250 -188 249q-111 0 -157 -65q-28 -39 -44 -94
l-147 24q31 150 164 217q86 43 194 43z" />
    <glyph glyph-name="ae" unicode="&#xe6;" horiz-adv-x="1466" 
d="M240 270q0 -174 168 -174q83 0 161 73q43 40 68 126t16 207q-68 12 -114 12q-299 0 -299 -244zM1227 608q0 131 -48 218t-159 87q-184 0 -211 -305h418zM82 277q0 130 76 223q109 129 364 129q57 0 131 -8v75q0 144 -92 196q-37 22 -90 21q-160 0 -199 -159l-147 24
q14 74 55 127t82 78t102 40t113 15q197 0 287 -141q102 141 272 141q352 0 361 -553h-596q0 -389 235 -389q129 0 183 136q10 26 22 67l141 -33q-80 -295 -354 -295q-211 0 -313 205q-91 -149 -200 -185q-58 -19 -132 -20q-153 0 -227 88t-74 218z" />
    <glyph glyph-name="ccedilla" unicode="&#xe7;" horiz-adv-x="837" 
d="M298 815q-48 -98 -48 -303t32 -287q50 -127 181 -129q107 -1 142 90q25 67 36 158l152 -20q-27 -170 -89 -253t-231 -100l-18 -61q146 5 187 -80q13 -30 13 -57q0 -66 -55 -115t-144 -49t-180 55l23 66q76 -27 139 -27q90 0 90 64q0 53 -65 67q-31 6 -117 6l45 135
q-307 47 -307 517q0 547 377 546q208 0 280 -166q25 -55 33 -87t19 -89l-152 -30q-8 50 -12 76t-18 65q-35 106 -150 106t-163 -98z" />
    <glyph glyph-name="egrave" unicode="&#xe8;" horiz-adv-x="907" 
d="M553 1225l-70 -74l-340 215l105 113zM668 608q0 131 -48 218t-159 87q-184 0 -211 -305h418zM242 485q0 -389 235 -389q101 0 149 74q30 46 56 129l141 -33q-80 -295 -354 -295q-201 -1 -293 147t-92 394t112 386t281 140q353 0 361 -553h-596z" />
    <glyph glyph-name="eacute" unicode="&#xe9;" horiz-adv-x="907" 
d="M356 1225l306 254l104 -113l-340 -215zM668 608q0 131 -48 218t-159 87q-184 0 -211 -305h418zM242 485q0 -389 235 -389q101 0 149 74q30 46 56 129l141 -33q-80 -295 -354 -295q-201 -1 -293 147t-92 394t112 386t281 140q353 0 361 -553h-596z" />
    <glyph glyph-name="ecircumflex" unicode="&#xea;" horiz-adv-x="907" 
d="M133 1192l322 242l321 -242l-145 -27l-176 125l-176 -125zM668 608q0 131 -48 218t-159 87q-184 0 -211 -305h418zM242 485q0 -389 235 -389q101 0 149 74q30 46 56 129l141 -33q-80 -295 -354 -295q-201 -1 -293 147t-92 394t112 386t281 140q353 0 361 -553h-596z" />
    <glyph glyph-name="edieresis" unicode="&#xeb;" horiz-adv-x="907" 
d="M606 1178q-40 0 -72 28t-32 69q0 42 29 71q30 28 75 28t75 -28t30 -72t-33 -70t-72 -26zM303 1178q-39 0 -72 26t-33 70q0 43 30 72q30 28 75 28t75 -28t30 -72t-33 -70t-72 -26zM668 608q0 131 -48 218t-159 87q-184 0 -211 -305h418zM242 485q0 -389 235 -389
q101 0 149 74q30 46 56 129l141 -33q-80 -295 -354 -295q-201 -1 -293 147t-92 394t112 386t281 140q353 0 361 -553h-596z" />
    <glyph glyph-name="igrave" unicode="&#xec;" horiz-adv-x="417" 
d="M307 1225l-69 -74l-340 215l104 113zM135 1010h150v-1010h-150v1010z" />
    <glyph glyph-name="iacute" unicode="&#xed;" horiz-adv-x="417" 
d="M111 1225l305 254l104 -113l-340 -215zM135 1010h150v-1010h-150v1010z" />
    <glyph glyph-name="icircumflex" unicode="&#xee;" horiz-adv-x="417" 
d="M-113 1192l322 242l321 -242l-145 -27l-176 125l-176 -125zM135 1010h150v-1010h-150v1010z" />
    <glyph glyph-name="idieresis" unicode="&#xef;" horiz-adv-x="417" 
d="M360 1178q-40 0 -72 28t-32 69q0 42 30 71q30 28 74 28t75 -28q30 -28 30 -72t-33 -70t-72 -26zM57 1178q-39 0 -71 26t-33 70q0 43 30 72q31 28 75 28t74 -28t30 -72t-33 -70t-72 -26zM135 1010h150v-1010h-150v1010z" />
    <glyph glyph-name="eth" unicode="&#xf0;" horiz-adv-x="907" 
d="M842 494q0 -139 -31 -238t-72 -154t-115 -93t-180 -38t-186 49q-80 48 -120 132q-72 150 -72 332t38 296t96 166q107 92 201 92q93 0 162 -57q-35 88 -106 211l-242 -127l-63 111l239 124q-27 41 -53 80l127 68l55 -80l236 125l63 -111l-231 -120q254 -418 254 -768z
M454 913q-222 -1 -222 -409t222 -408t222 408t-222 409z" />
    <glyph glyph-name="ntilde" unicode="&#xf1;" horiz-adv-x="942" 
d="M570 1176q-44 0 -114 48q-69 48 -100 48q-53 0 -94 -84l-84 49q76 160 189 160q53 0 121 -48q68 -49 113 -49q44 0 79 78l84 -49q-62 -114 -120 -140q-30 -13 -74 -13zM274 854q74 184 261 184q86 0 149 -37t93 -101t30 -257v-643h-150v623q0 196 -37 243t-118 47
q-217 0 -217 -368v-545h-150v1010h139v-156z" />
    <glyph glyph-name="ograve" unicode="&#xf2;" horiz-adv-x="942" 
d="M569 1225l-69 -74l-340 215l104 113zM471 913q-221 -1 -221 -409t221 -408t221 408t-221 409zM471 1038q117 0 197 -50t118 -133q72 -154 72 -339q0 -545 -389 -545q-113 0 -191 48q-130 79 -177 300q-17 85 -17 181q0 194 67 346q38 88 120 140q83 52 200 52z" />
    <glyph glyph-name="oacute" unicode="&#xf3;" horiz-adv-x="942" 
d="M373 1225l305 254l104 -113l-340 -215zM471 913q-221 -1 -221 -409t221 -408t221 408t-221 409zM471 1038q117 0 197 -50t118 -133q72 -154 72 -339q0 -545 -389 -545q-113 0 -191 48q-130 79 -177 300q-17 85 -17 181q0 194 67 346q38 88 120 140q83 52 200 52z" />
    <glyph glyph-name="ocircumflex" unicode="&#xf4;" horiz-adv-x="942" 
d="M150 1192l321 242l322 -242l-146 -27l-176 125l-176 -125zM471 913q-221 -1 -221 -409t221 -408t221 408t-221 409zM471 1038q117 0 197 -50t118 -133q72 -154 72 -339q0 -545 -389 -545q-113 0 -191 48q-130 79 -177 300q-17 85 -17 181q0 194 67 346q38 88 120 140
q83 52 200 52z" />
    <glyph glyph-name="otilde" unicode="&#xf5;" horiz-adv-x="942" 
d="M570 1176q-44 0 -114 48q-69 48 -100 48q-53 0 -94 -84l-84 49q76 160 189 160q53 0 121 -48q68 -49 113 -49q44 0 79 78l84 -49q-62 -114 -120 -140q-30 -13 -74 -13zM471 913q-221 -1 -221 -409t221 -408t221 408t-221 409zM471 1038q117 0 197 -50t118 -133
q72 -154 72 -339q0 -545 -389 -545q-113 0 -191 48q-130 79 -177 300q-17 85 -17 181q0 194 67 346q38 88 120 140q83 52 200 52z" />
    <glyph glyph-name="odieresis" unicode="&#xf6;" horiz-adv-x="942" 
d="M623 1178q-39 0 -72 28t-33 69q0 42 30 71q30 28 75 28t75 -28t29 -72t-33 -70t-71 -26zM319 1178q-39 0 -71 26t-33 70q0 43 30 72q31 28 75 28t74 -28t30 -72t-33 -70t-72 -26zM471 913q-221 -1 -221 -409t221 -408t221 408t-221 409zM471 1038q117 0 197 -50t118 -133
q72 -154 72 -339q0 -545 -389 -545q-113 0 -191 48q-130 79 -177 300q-17 85 -17 181q0 194 67 346q38 88 120 140q83 52 200 52z" />
    <glyph glyph-name="divide" unicode="&#xf7;" 
d="M608 319h-170v191h170v-191zM608 856h-170v191h170v-191zM942 621h-838v124h838v-124z" />
    <glyph glyph-name="oslash" unicode="&#xf8;" horiz-adv-x="942" 
d="M463 92q244 0 244 414q0 164 -37 285l-314 -670q41 -29 107 -29zM475 918q-240 0 -239 -410q0 -178 49 -303l317 678q-49 35 -127 35zM467 -29q-90 0 -180 43l-58 -112h-108l88 176q-125 154 -125 428q0 142 31 243t70 156q40 55 113 94q74 39 180 39t194 -53l51 102h111
l-86 -169q111 -147 110 -404q0 -543 -391 -543z" />
    <glyph glyph-name="ugrave" unicode="&#xf9;" horiz-adv-x="942" 
d="M569 1225l-69 -74l-340 215l104 113zM135 1010h150v-637q0 -188 35 -232q35 -43 103 -44q120 -2 170 84q49 86 57 178q7 92 7 190v461h150v-1010h-139v150q-63 -131 -156 -162q-47 -16 -109 -17q-170 0 -233 133q-35 70 -35 267v639z" />
    <glyph glyph-name="uacute" unicode="&#xfa;" horiz-adv-x="942" 
d="M373 1225l305 254l104 -113l-340 -215zM135 1010h150v-637q0 -188 35 -232q35 -43 103 -44q120 -2 170 84q49 86 57 178q7 92 7 190v461h150v-1010h-139v150q-63 -131 -156 -162q-47 -16 -109 -17q-170 0 -233 133q-35 70 -35 267v639z" />
    <glyph glyph-name="ucircumflex" unicode="&#xfb;" horiz-adv-x="942" 
d="M150 1192l321 242l322 -242l-146 -27l-176 125l-176 -125zM135 1010h150v-637q0 -188 35 -232q35 -43 103 -44q120 -2 170 84q49 86 57 178q7 92 7 190v461h150v-1010h-139v150q-63 -131 -156 -162q-47 -16 -109 -17q-170 0 -233 133q-35 70 -35 267v639z" />
    <glyph glyph-name="udieresis" unicode="&#xfc;" horiz-adv-x="942" 
d="M623 1178q-39 0 -72 28t-33 69q0 42 30 71q30 28 75 28t75 -28t29 -72t-33 -70t-71 -26zM319 1178q-39 0 -71 26t-33 70q0 43 30 72q31 28 75 28t74 -28t30 -72t-33 -70t-72 -26zM135 1010h150v-637q0 -188 35 -232q35 -43 103 -44q120 -2 170 84q49 86 57 178
q7 92 7 190v461h150v-1010h-139v150q-63 -131 -156 -162q-47 -16 -109 -17q-170 0 -233 133q-35 70 -35 267v639z" />
    <glyph glyph-name="yacute" unicode="&#xfd;" horiz-adv-x="768" 
d="M287 1225l305 254l104 -113l-340 -215zM150 -365q-27 0 -99 11v123q45 -8 70 -9q82 0 117 52t86 233l-285 965h149l207 -756l223 756h144l-348 -1112q-42 -133 -96 -198t-168 -65z" />
    <glyph glyph-name="thorn" unicode="&#xfe;" horiz-adv-x="976" 
d="M285 580v-152q0 -101 14 -151t41 -84q66 -89 168 -89t160 102t59 294q0 192 -56 298t-159 107q-72 0 -127 -61t-77 -134t-23 -130zM135 1366h150v-532q62 142 150 178q46 18 106 18q158 0 255 -138t97 -374q-1 -68 -15 -160q-23 -146 -102 -263t-237 -115q-70 0 -121 22
t-77 52q-26 28 -56 77v-473h-150v1708z" />
    <glyph glyph-name="ydieresis" unicode="&#xff;" horiz-adv-x="768" 
d="M537 1178q-39 0 -72 28t-33 69q0 42 30 71q30 28 75 28t75 -28t29 -72t-33 -70t-71 -26zM233 1178q-39 0 -71 26t-33 70q0 43 30 72q31 28 75 28t74 -28t30 -72t-33 -70t-72 -26zM150 -365q-27 0 -99 11v123q45 -8 70 -9q82 0 117 52t86 233l-285 965h149l207 -756
l223 756h144l-348 -1112q-42 -133 -96 -198t-168 -65z" />
    <glyph glyph-name="dotlessi" unicode="&#x131;" horiz-adv-x="417" 
d="M135 1010h150v-1010h-150v1010z" />
    <glyph glyph-name="Lslash" unicode="&#x141;" horiz-adv-x="802" 
d="M143 1366h166v-594l246 244v-158l-246 -244v-477h518v-137h-684v498l-135 -138v158l135 139v709z" />
    <glyph glyph-name="lslash" unicode="&#x142;" horiz-adv-x="417" 
d="M135 1366h150v-549l123 127v-143l-123 -125v-676h-150v580l-123 -125v141l123 125v645z" />
    <glyph glyph-name="OE" unicode="&#x152;" horiz-adv-x="1675" 
d="M582 1257q-152 0 -222 -112q-98 -159 -98 -467t79 -438t241 -131q221 -1 297 253v678q-70 217 -297 217zM1626 1366v-137h-590v-453h465v-137h-465v-502h598v-137h-755v164q-25 -41 -43 -65q-94 -125 -285 -128q-94 0 -170 34t-123 84t-92 145t-61 220q-15 125 -15 194
q0 226 43 381t133 248q49 50 126 84t161 34t153 -21q91 -27 173 -151v143h747z" />
    <glyph glyph-name="oe" unicode="&#x153;" horiz-adv-x="1501" 
d="M1057 913q-178 0 -207 -305h412q-4 305 -205 305zM467 913q-217 -1 -217 -409t217 -408t217 408t-217 409zM842 485q0 -389 231 -389q100 0 146 74q33 53 57 129l139 -33q-74 -295 -350 -295q-207 0 -311 183q-100 -182 -282 -182t-264 104q-83 105 -104 218
q-20 113 -20 189t4 127t26 135t59 144q38 59 113 104t171 45t167 -37q70 -37 94 -67t50 -74q33 47 58 77q26 29 94 65t162 36t167 -49q74 -49 107 -115q58 -117 68 -259q4 -42 6 -130h-588z" />
    <glyph glyph-name="Scaron" unicode="&#x160;" 
d="M180 1714l150 27l182 -107l182 107l150 -27l-332 -227zM506 1255q-123 -1 -175 -69t-52 -155q1 -87 67 -136t184 -95t154 -60q36 -15 99 -53q186 -114 186 -323q0 -145 -109 -269t-325 -124q-397 0 -474 387l152 43q29 -143 108 -217q78 -75 215 -74q138 0 199 74t61 146
q1 129 -78 186t-202 104t-177 74t-105 72t-84 119t-33 149q0 141 103 251t300 110q88 0 158 -28q70 -29 110 -63t79 -101q40 -67 61 -148l-148 -43q-61 180 -158 223q-48 20 -116 20z" />
    <glyph glyph-name="scaron" unicode="&#x161;" horiz-adv-x="802" 
d="M80 1397l145 24l176 -125l177 125l145 -24l-322 -244zM219 752q0 -66 47 -97t151 -61q103 -30 143 -48t94 -51q110 -69 110 -203t-94 -227t-289 -93t-275 119q-37 56 -49 89t-22 80l139 31q37 -195 234 -195q100 0 150 51t50 103t-15 82q-30 58 -175 103q-146 44 -204 73
q-58 30 -100 90t-42 154t86 190t252 96t238 -103q50 -71 73 -153l-131 -32q-19 45 -51 95q-45 68 -163 68q-66 0 -112 -47q-45 -48 -45 -114z" />
    <glyph glyph-name="Ydieresis" unicode="&#x178;" horiz-adv-x="802" 
d="M578 1712q46 0 76 -30t30 -74t-34 -73q-34 -28 -73 -28q-38 0 -73 28t-35 73q0 44 32 74t77 30zM263 1507q-38 0 -73 28q-34 28 -34 72q0 45 30 75t76 30q45 0 77 -30t32 -74t-35 -73q-35 -28 -73 -28zM485 0h-166v578l-378 788h176l299 -629l295 629h151l-377 -788v-578
z" />
    <glyph glyph-name="Zcaron" unicode="&#x17d;" horiz-adv-x="837" 
d="M98 1714l150 27l182 -107l182 107l150 -27l-332 -227zM45 1366h772v-113l-633 -1108h645v-145h-817v145l619 1084h-586v137z" />
    <glyph glyph-name="zcaron" unicode="&#x17e;" horiz-adv-x="663" 
d="M10 1397l146 24l176 -125l176 125l145 -24l-321 -244zM55 1010h600v-82l-467 -805h467v-123h-637v123l445 764h-408v123z" />
    <glyph glyph-name="florin" unicode="&#x192;" 
d="M-18 -301l22 133q23 -4 59 -4q121 0 165 58t81 270l111 628h-178l20 123h178q47 240 95 324q90 160 309 160q31 0 78 -9l-23 -122q-86 4 -136 -8t-84 -62t-50 -106t-41 -177h231l-18 -123h-236l-110 -628q-39 -226 -74 -288q-53 -99 -109 -128q-91 -47 -151 -47
q-59 0 -139 6z" />
    <glyph glyph-name="circumflex" unicode="&#x2c6;" horiz-adv-x="1024" 
d="M190 1192l322 242l322 -242l-146 -27l-176 125l-176 -125z" />
    <glyph glyph-name="caron" unicode="&#x2c7;" horiz-adv-x="1024" 
d="M190 1397l146 24l176 -125l176 125l146 -24l-322 -244z" />
    <glyph glyph-name="uni02C9" unicode="&#x2c9;" horiz-adv-x="1024" 
d="M238 1333h546v-119h-546v119z" />
    <glyph glyph-name="breve" unicode="&#x2d8;" horiz-adv-x="1024" 
d="M507 1270q85 0 120 30t47 89h125q-43 -238 -277 -238q-133 0 -204 57q-70 58 -93 181h125q16 -57 35 -78q37 -41 122 -41z" />
    <glyph glyph-name="dotaccent" unicode="&#x2d9;" horiz-adv-x="1024" 
d="M512 1161q-41 0 -78 31t-37 81t34 83t80 33t81 -33t35 -83t-37 -81t-78 -31z" />
    <glyph glyph-name="ring" unicode="&#x2da;" horiz-adv-x="1024" 
d="M536 1208q36 0 64 26t29 68q0 42 -28 68q-27 26 -65 27q-38 0 -66 -27q-28 -26 -28 -68t29 -68t65 -26zM537 1118q-68 0 -126 49q-59 49 -59 131t56 136t129 53q74 0 128 -53q54 -54 54 -136t-57 -131t-125 -49z" />
    <glyph glyph-name="ogonek" unicode="&#x2db;" horiz-adv-x="1024" 
d="M647 -334q-90 0 -137 51t-47 103t26 92q27 39 50 54t57 34h80q-84 -80 -84 -150q0 -94 127 -94q32 0 67 6l19 -67q-68 -29 -158 -29z" />
    <glyph glyph-name="tilde" unicode="&#x2dc;" horiz-adv-x="1024" 
d="M610 1176q-46 0 -114 48t-99 48q-53 0 -94 -84l-84 49q76 160 189 160q54 0 122 -48q68 -49 112 -49t79 78l84 -49q-63 -114 -121 -140q-30 -13 -74 -13z" />
    <glyph glyph-name="hungarumlaut" unicode="&#x2dd;" horiz-adv-x="1024" 
d="M825 1462l107 -108l-270 -203l-54 63zM565 1462l107 -108l-271 -203l-53 63z" />
    <glyph glyph-name="uni03A9" unicode="&#x3a9;" horiz-adv-x="1351" 
d="M375 119v6q-113 104 -185 262t-71 352q0 287 161 470q160 183 404 183t396 -188q152 -190 151 -456q0 -199 -75 -363t-183 -260v-6h284v-119h-452v88q121 82 202 247t80 384q0 135 -44 258t-139 209t-224 86q-188 0 -303 -159t-115 -382t83 -394t200 -249v-88h-453v119
h283z" />
    <glyph glyph-name="uni03BC" unicode="&#x3bc;" horiz-adv-x="942" 
d="M657 1010h150v-1010h-139v150q-31 -90 -74 -134t-123 -45q-80 0 -122 43t-75 136v-492h-139v1352h150v-556q0 -153 34 -248q13 -40 33 -60q49 -49 104 -49q83 -1 133 49q68 68 68 308v556z" />
    <glyph glyph-name="pi" unicode="&#x3c0;" horiz-adv-x="1077" 
d="M874 897v-612q0 -190 27 -285h-137q-33 57 -33 274v623h-340q-8 -213 -48 -488t-91 -409h-139q53 152 92 418t45 479q-141 0 -209 -25l-23 97q84 51 271 51h751l-14 -123h-152z" />
    <glyph glyph-name="endash" unicode="&#x2013;" horiz-adv-x="802" 
d="M63 569h676v-123h-676v123z" />
    <glyph glyph-name="emdash" unicode="&#x2014;" horiz-adv-x="1255" 
d="M63 569h1129v-123h-1129v123z" />
    <glyph glyph-name="quoteleft" unicode="&#x2018;" horiz-adv-x="417" 
d="M285 940h-187v201l133 248h91l-121 -236h84v-213z" />
    <glyph glyph-name="quoteright" unicode="&#x2019;" horiz-adv-x="417" 
d="M135 1151v215h187v-203l-134 -248h-90l121 236h-84z" />
    <glyph glyph-name="quotesinglbase" unicode="&#x201a;" horiz-adv-x="417" 
d="M135 215h187v-203l-134 -248h-90l121 236h-84v215z" />
    <glyph glyph-name="quotedblleft" unicode="&#x201c;" horiz-adv-x="698" 
d="M285 940h-187v201l133 248h91l-121 -236h84v-213zM563 940h-186v201l133 248h90l-121 -236h84v-213z" />
    <glyph glyph-name="quotedblright" unicode="&#x201d;" horiz-adv-x="698" 
d="M414 1366h186v-203l-133 -248h-90l121 236h-84v215zM135 1366h187v-203l-134 -248h-90l121 236h-84v215z" />
    <glyph glyph-name="quotedblbase" unicode="&#x201e;" horiz-adv-x="698" 
d="M414 215h186v-203l-133 -248h-90l121 236h-84v215zM135 215h187v-203l-134 -248h-90l121 236h-84v215z" />
    <glyph glyph-name="dagger" unicode="&#x2020;" 
d="M455 1366h139v-401h315v-131h-315v-1176h-139v1176h-316v131h316v401z" />
    <glyph glyph-name="daggerdbl" unicode="&#x2021;" 
d="M455 1366h139v-401h315v-131h-315v-644h315v-131h-315v-401h-139v401h-316v131h316v644h-316v131h316v401z" />
    <glyph glyph-name="bullet" unicode="&#x2022;" horiz-adv-x="202" 
d="M0 815h203v-240h-203v240z" />
    <glyph glyph-name="ellipsis" unicode="&#x2026;" horiz-adv-x="1464" 
d="M1126 221h187v-221h-187v221zM639 221h186v-221h-186v221zM152 221h186v-221h-186v221z" />
    <glyph glyph-name="perthousand" unicode="&#x2030;" horiz-adv-x="2023" 
d="M981 1366h119l-684 -1366h-119zM1520 338q0 -118 28 -184t98 -66q68 0 100 40t40 89t8 111t-4 99q-17 161 -133 161q-137 0 -137 -250zM1656 692q124 0 196 -98t73 -258q0 -160 -73 -256q-72 -96 -196 -96t-196 97t-72 255t72 257t196 99zM1032 88q134 0 134 229
q0 93 -8 141q-7 48 -39 89t-89 41h-2q-135 0 -135 -250q0 -122 31 -186q30 -64 108 -64zM1030 692q123 0 195 -97q71 -97 71 -258t-72 -257t-195 -96t-195 96t-72 256t72 258t196 98zM229 1026q0 -250 138 -250q81 0 109 67t28 187t-30 184t-114 64q-85 0 -108 -80t-23 -172
zM367 1382q123 0 195 -98t73 -257q0 -159 -72 -257q-71 -98 -195 -98t-197 97t-73 258t73 258t196 97z" />
    <glyph glyph-name="guilsinglleft" unicode="&#x2039;" horiz-adv-x="452" 
d="M362 223h-92l-178 303l178 303h92l-94 -303z" />
    <glyph glyph-name="guilsinglright" unicode="&#x203a;" horiz-adv-x="452" 
d="M92 829h92l178 -303l-178 -303h-92l94 303z" />
    <glyph glyph-name="fraction" unicode="&#x2044;" horiz-adv-x="139" 
d="M352 1366h119l-684 -1366h-119z" />
    <glyph glyph-name="Euro" unicode="&#x20ac;" 
d="M641 96q84 0 147 62t97 186l139 -35q-78 -338 -395 -338q-195 0 -298 132t-126 409h-154l19 106h129v66q0 53 2 78h-150l19 106h139q31 254 145 390q115 136 293 137q289 0 379 -318l-143 -35q-55 227 -232 228q-231 0 -276 -402h385l-19 -106h-374q-2 -27 -2 -82v-62
h354l-19 -106h-329q35 -416 270 -416z" />
    <glyph glyph-name="afii61289" unicode="&#x2113;" horiz-adv-x="915" 
d="M342 1047v-431q293 334 293 574q0 207 -135 207q-62 0 -110 -85t-48 -265zM207 1038q0 246 84 358t203 112t178 -89q59 -88 59 -227q0 -326 -389 -719v-70q2 -157 60 -233t144 -76t152 56t107 131l67 -60q-123 -240 -350 -239q-156 0 -232 101t-81 263v27
q-61 -51 -109 -92l-45 84q111 94 152 135v538z" />
    <glyph glyph-name="trademark" unicode="&#x2122;" horiz-adv-x="1466" 
d="M598 588v778h186l170 -627l172 625h183v-776h-119v657l-184 -657h-115l-180 659v-659h-113zM229 588v678h-180v100h490v-100h-181v-678h-129z" />
    <glyph glyph-name="Omega" unicode="&#x2126;" horiz-adv-x="1351" 
d="M375 119v6q-113 104 -185 262t-71 352q0 287 161 470q160 183 404 183t396 -188q152 -190 151 -456q0 -199 -75 -363t-183 -260v-6h284v-119h-452v88q121 82 202 247t80 384q0 135 -44 258t-139 209t-224 86q-188 0 -303 -159t-115 -382t83 -394t200 -249v-88h-453v119
h283z" />
    <glyph glyph-name="estimated" unicode="&#x212e;" horiz-adv-x="1716" 
d="M1358 713v391q0 27 -21 45q-203 203 -481 203t-479 -209q-20 -18 -21 -47v-383q0 -12 11 -13h983q8 1 8 13zM1649 664h-1282q-10 0 -11 -9v-389q0 -25 19 -43q201 -211 495 -211t498 236h113q-109 -127 -274 -201t-351 -74q-328 0 -559 208t-231 502t231 503t559 209
t560 -209t233 -504v-18z" />
    <glyph glyph-name="partialdiff" unicode="&#x2202;" horiz-adv-x="1034" 
d="M457 100h2q127 0 213 148t106 358q-25 76 -98 144q-74 68 -182 68t-192 -115q-83 -114 -83 -265q0 -150 64 -244t170 -94zM467 1534q191 0 330 -190t139 -554q0 -362 -128 -586t-364 -224q-174 0 -268 133t-94 337t119 344t284 140q113 0 195 -60t115 -120h2q2 20 2 84
q1 252 -103 414t-246 161q-142 0 -257 -92l-48 104q131 109 322 109z" />
    <glyph glyph-name="Delta" unicode="&#x2206;" horiz-adv-x="1220" 
d="M203 119h807l-275 751q-12 42 -61 178t-62 187h-8q-10 -41 -54 -165t-58 -169zM59 0v98l473 1309h164l465 -1307v-100h-1102z" />
    <glyph glyph-name="product" unicode="&#x220f;" horiz-adv-x="1320" 
d="M1268 1239h-205v-1427h-139v1427h-529v-1427h-141v1427h-205v133h1219v-133z" />
    <glyph glyph-name="summation" unicode="&#x2211;" 
d="M1004 -190h-961v98l510 682l-487 680v102h907v-125h-711v-6l453 -631l-492 -657v-6h781v-137z" />
    <glyph glyph-name="minus" unicode="&#x2212;" 
d="M942 621h-838v124h838v-124z" />
    <glyph glyph-name="uni2215" unicode="&#x2215;" horiz-adv-x="139" 
d="M352 1366h119l-684 -1366h-119z" />
    <glyph glyph-name="uni2219" unicode="&#x2219;" horiz-adv-x="487" 
d="M152 793h186v-222h-186v222z" />
    <glyph glyph-name="radical" unicode="&#x221a;" horiz-adv-x="1083" 
d="M1083 1630l-419 -1923h-125l-303 911l-142 -53l-28 88l258 101l241 -725q6 -23 33 -144l2 -2q4 34 25 146l352 1601h106z" />
    <glyph glyph-name="infinity" unicode="&#x221e;" horiz-adv-x="1486" 
d="M1100 778h-2q-78 0 -142 -53t-106 -101q-41 -47 -51 -57q107 -119 169 -166t142 -47t132 64t52 153q0 91 -54 149t-140 58zM395 354h2q59 0 92 22q34 22 50 30q16 10 52 44t67 69q32 36 36 40q-106 129 -168 174t-146 45q-83 0 -135 -63t-52 -153t57 -148q57 -60 145 -60
zM1389 571v-2q0 -135 -87 -220q-86 -85 -190 -85t-183 53t-184 175q-63 -72 -106 -113t-113 -78t-143 -37q-119 0 -203 86t-84 215t85 215t199 86t198 -59q82 -59 174 -170q55 61 77 86q23 25 74 68q89 75 210 74q122 -1 199 -82t77 -212z" />
    <glyph glyph-name="integral" unicode="&#x222b;" horiz-adv-x="684" 
d="M422 182q0 -274 -82 -397q-61 -100 -188 -100q-70 0 -125 30l26 107q45 -23 93 -23t79 45q66 82 66 338q0 162 -12 505t-13 497q0 307 101 415q70 76 180 76q63 1 102 -26l-22 -101q-33 20 -82 20t-84 -46q-63 -80 -64 -353q1 -153 13 -489t12 -498z" />
    <glyph glyph-name="approxequal" unicode="&#x2248;" horiz-adv-x="1067" 
d="M733 281q-51 0 -95 17q-44 16 -142 72t-159 56q-63 0 -105 -38t-85 -107l-61 51q94 184 260 184q69 0 105 -18t68 -37t41 -23t31 -16t30 -16l27 -14q44 -22 96 -21q52 0 93 33q40 34 83 108l59 -49q-92 -182 -246 -182zM735 604q-53 0 -96 18t-141 74t-161 56t-105 -37
t-85 -107l-61 49q94 184 262 185q93 0 213 -80q4 -2 14 -8q103 -54 161 -56t100 33q41 35 84 109l59 -52q-92 -184 -244 -184z" />
    <glyph glyph-name="notequal" unicode="&#x2260;" horiz-adv-x="1067" 
d="M969 791v-95h-334l-127 -278h461v-94h-498l-102 -224l-74 33l86 191h-285v94h324l127 278h-451v95h488l100 221l74 -33l-86 -188h297z" />
    <glyph glyph-name="lessequal" unicode="&#x2264;" horiz-adv-x="1067" 
d="M969 18h-871v97h871v-97zM965 195l-856 434v96l856 434v-112l-758 -367v-4l758 -369v-112z" />
    <glyph glyph-name="greaterequal" unicode="&#x2265;" horiz-adv-x="1067" 
d="M969 18h-871v97h871v-97zM111 1159l856 -434v-96l-856 -434v112l753 367v4l-753 369v112z" />
    <glyph glyph-name="lozenge" unicode="&#x25ca;" horiz-adv-x="1087" 
d="M850 682l-268 547q-20 47 -37 104h-4q-27 -80 -39 -104l-269 -541l273 -551q27 -61 33 -102h8q14 66 33 100zM981 684l-383 -770h-117l-377 770l383 772h117z" />
    </font>
</defs>
</svg>
